<svg xmlns="http://www.w3.org/2000/svg" height="800" width="1200" viewBox="-27.44895 -8.99625 237.8909 53.9775"><path d="M179.774 35.95h3.212c-2.179-3.666-6.274-17.033-11.155-35.927l-15.17.005-23.924 35.947h13.207l3.506-5.84h16.167l.952 5.84h16.424v-.022h-3.217zm-25.912-13.269l8.226-13.806h.1l2.158 13.806zm-45.228 5.538l1.424-6.49h23.161l1.627-7.453h-23.162l1.425-6.5h24.713L139.517 0l-37.1.007-.014.059c-4.86 18.825-8.945 32.155-11.118 35.834v.026h-.026v.039h3.351v.009h37.047l1.694-7.758h-24.717zM85.075.03l-4.92 22.5h-.1L67.825.03 53.448.019c-4.877 18.873-8.968 32.23-11.141 35.894h3.47v.006h-3.48v.029h3.477-3.491v.029h3.656v-.006h11.746l4.969-22.707h.1l12.75 22.71h13.627L97 .03zM17.563 28.219l1.423-6.493h23.155l1.633-7.45H20.615l1.419-6.493H46.75L48.445.032H11.157C6.277 18.926 2.177 32.312 0 35.985h3.547v-.007h37.031l1.7-7.757H17.563z" class="cls-1" fill="#a9001e"/></svg>